<mxfile host="app.diagrams.net" modified="2023-05-20T19:06:08.506Z" agent="Mozilla/5.0 (Windows NT 10.0; Win64; x64; rv:109.0) Gecko/20100101 Firefox/113.0" etag="lnzeOhAj5Hbw-tNFbhTn" version="21.3.2" type="device">
  <diagram name="Page-1" id="jFEMx681TeEaOXfy0D0k">
    <mxGraphModel dx="1434" dy="754" grid="1" gridSize="10" guides="1" tooltips="1" connect="1" arrows="1" fold="1" page="1" pageScale="1" pageWidth="850" pageHeight="1100" math="0" shadow="0">
      <root>
        <mxCell id="0" />
        <mxCell id="1" parent="0" />
        <mxCell id="-RHoygchYiFBm0QI4CZZ-1" value="" style="rounded=0;whiteSpace=wrap;html=1;" parent="1" vertex="1">
          <mxGeometry x="400" y="150" width="30" height="30" as="geometry" />
        </mxCell>
        <mxCell id="-RHoygchYiFBm0QI4CZZ-2" value="" style="rounded=0;whiteSpace=wrap;html=1;" parent="1" vertex="1">
          <mxGeometry x="430" y="150" width="30" height="30" as="geometry" />
        </mxCell>
        <mxCell id="-RHoygchYiFBm0QI4CZZ-3" value="" style="endArrow=classic;html=1;rounded=0;" parent="1" source="-RHoygchYiFBm0QI4CZZ-7" edge="1">
          <mxGeometry width="50" height="50" relative="1" as="geometry">
            <mxPoint x="680" y="330" as="sourcePoint" />
            <mxPoint x="415" y="220" as="targetPoint" />
          </mxGeometry>
        </mxCell>
        <mxCell id="-RHoygchYiFBm0QI4CZZ-7" value="" style="shape=waypoint;sketch=0;fillStyle=solid;size=6;pointerEvents=1;points=[];fillColor=none;resizable=0;rotatable=0;perimeter=centerPerimeter;snapToPoint=1;" parent="1" vertex="1">
          <mxGeometry x="405" y="155" width="20" height="20" as="geometry" />
        </mxCell>
        <mxCell id="-RHoygchYiFBm0QI4CZZ-8" value="" style="shape=waypoint;sketch=0;fillStyle=solid;size=6;pointerEvents=1;points=[];fillColor=none;resizable=0;rotatable=0;perimeter=centerPerimeter;snapToPoint=1;" parent="1" vertex="1">
          <mxGeometry x="435" y="155" width="20" height="20" as="geometry" />
        </mxCell>
        <mxCell id="-RHoygchYiFBm0QI4CZZ-9" value="&#39;likes" style="rounded=0;whiteSpace=wrap;html=1;" parent="1" vertex="1">
          <mxGeometry x="400" y="220" width="40" height="30" as="geometry" />
        </mxCell>
        <mxCell id="-RHoygchYiFBm0QI4CZZ-23" value="" style="rounded=0;whiteSpace=wrap;html=1;" parent="1" vertex="1">
          <mxGeometry x="500" y="210" width="30" height="30" as="geometry" />
        </mxCell>
        <mxCell id="-RHoygchYiFBm0QI4CZZ-24" value="" style="rounded=0;whiteSpace=wrap;html=1;" parent="1" vertex="1">
          <mxGeometry x="530" y="210" width="30" height="30" as="geometry" />
        </mxCell>
        <mxCell id="-RHoygchYiFBm0QI4CZZ-26" value="" style="endArrow=classic;html=1;rounded=0;entryX=0.5;entryY=0;entryDx=0;entryDy=0;" parent="1" source="-RHoygchYiFBm0QI4CZZ-28" target="-RHoygchYiFBm0QI4CZZ-30" edge="1">
          <mxGeometry width="50" height="50" relative="1" as="geometry">
            <mxPoint x="525" y="250" as="sourcePoint" />
            <mxPoint x="545" y="280" as="targetPoint" />
          </mxGeometry>
        </mxCell>
        <mxCell id="-RHoygchYiFBm0QI4CZZ-27" value="" style="shape=waypoint;sketch=0;fillStyle=solid;size=6;pointerEvents=1;points=[];fillColor=none;resizable=0;rotatable=0;perimeter=centerPerimeter;snapToPoint=1;" parent="1" vertex="1">
          <mxGeometry x="505" y="215" width="20" height="20" as="geometry" />
        </mxCell>
        <mxCell id="-RHoygchYiFBm0QI4CZZ-28" value="" style="shape=waypoint;sketch=0;fillStyle=solid;size=6;pointerEvents=1;points=[];fillColor=none;resizable=0;rotatable=0;perimeter=centerPerimeter;snapToPoint=1;" parent="1" vertex="1">
          <mxGeometry x="535" y="215" width="20" height="20" as="geometry" />
        </mxCell>
        <mxCell id="-RHoygchYiFBm0QI4CZZ-30" value="cat likes" style="rounded=0;whiteSpace=wrap;html=1;" parent="1" vertex="1">
          <mxGeometry x="535" y="270" width="30" height="30" as="geometry" />
        </mxCell>
        <mxCell id="j2mQybEEx7JjzLiYnR7x-3" style="edgeStyle=orthogonalEdgeStyle;rounded=0;orthogonalLoop=1;jettySize=auto;html=1;entryX=0;entryY=0.5;entryDx=0;entryDy=0;" edge="1" parent="1" target="j2mQybEEx7JjzLiYnR7x-5" source="-RHoygchYiFBm0QI4CZZ-8">
          <mxGeometry relative="1" as="geometry">
            <mxPoint x="460" y="165" as="sourcePoint" />
          </mxGeometry>
        </mxCell>
        <mxCell id="j2mQybEEx7JjzLiYnR7x-4" value="" style="group" vertex="1" connectable="0" parent="1">
          <mxGeometry x="500" y="150" width="60" height="30" as="geometry" />
        </mxCell>
        <mxCell id="j2mQybEEx7JjzLiYnR7x-5" value="" style="rounded=0;whiteSpace=wrap;html=1;" vertex="1" parent="j2mQybEEx7JjzLiYnR7x-4">
          <mxGeometry width="30" height="30" as="geometry" />
        </mxCell>
        <mxCell id="j2mQybEEx7JjzLiYnR7x-6" value="" style="rounded=0;whiteSpace=wrap;html=1;" vertex="1" parent="j2mQybEEx7JjzLiYnR7x-4">
          <mxGeometry x="30" width="30" height="30" as="geometry" />
        </mxCell>
        <mxCell id="j2mQybEEx7JjzLiYnR7x-7" value="" style="shape=waypoint;sketch=0;fillStyle=solid;size=6;pointerEvents=1;points=[];fillColor=none;resizable=0;rotatable=0;perimeter=centerPerimeter;snapToPoint=1;" vertex="1" parent="j2mQybEEx7JjzLiYnR7x-4">
          <mxGeometry x="5" y="5" width="20" height="20" as="geometry" />
        </mxCell>
        <mxCell id="j2mQybEEx7JjzLiYnR7x-8" value="" style="shape=waypoint;sketch=0;fillStyle=solid;size=6;pointerEvents=1;points=[];fillColor=none;resizable=0;rotatable=0;perimeter=centerPerimeter;snapToPoint=1;" vertex="1" parent="j2mQybEEx7JjzLiYnR7x-4">
          <mxGeometry x="35" y="5" width="20" height="20" as="geometry" />
        </mxCell>
        <mxCell id="j2mQybEEx7JjzLiYnR7x-19" value="" style="group" vertex="1" connectable="0" parent="1">
          <mxGeometry x="600" y="150" width="60" height="30" as="geometry" />
        </mxCell>
        <mxCell id="j2mQybEEx7JjzLiYnR7x-20" value="" style="rounded=0;whiteSpace=wrap;html=1;" vertex="1" parent="j2mQybEEx7JjzLiYnR7x-19">
          <mxGeometry width="30" height="30" as="geometry" />
        </mxCell>
        <mxCell id="j2mQybEEx7JjzLiYnR7x-21" value="" style="rounded=0;whiteSpace=wrap;html=1;" vertex="1" parent="j2mQybEEx7JjzLiYnR7x-19">
          <mxGeometry x="30" width="30" height="30" as="geometry" />
        </mxCell>
        <mxCell id="j2mQybEEx7JjzLiYnR7x-22" value="" style="shape=waypoint;sketch=0;fillStyle=solid;size=6;pointerEvents=1;points=[];fillColor=none;resizable=0;rotatable=0;perimeter=centerPerimeter;snapToPoint=1;" vertex="1" parent="j2mQybEEx7JjzLiYnR7x-19">
          <mxGeometry x="5" y="5" width="20" height="20" as="geometry" />
        </mxCell>
        <mxCell id="j2mQybEEx7JjzLiYnR7x-30" style="edgeStyle=orthogonalEdgeStyle;rounded=0;orthogonalLoop=1;jettySize=auto;html=1;exitX=0.5;exitY=1;exitDx=0;exitDy=0;entryX=0.5;entryY=0;entryDx=0;entryDy=0;" edge="1" parent="1" source="j2mQybEEx7JjzLiYnR7x-20">
          <mxGeometry relative="1" as="geometry">
            <mxPoint x="615" y="210" as="targetPoint" />
          </mxGeometry>
        </mxCell>
        <mxCell id="j2mQybEEx7JjzLiYnR7x-31" value="" style="endArrow=none;html=1;rounded=0;exitX=0;exitY=1;exitDx=0;exitDy=0;" edge="1" parent="1" source="j2mQybEEx7JjzLiYnR7x-21">
          <mxGeometry width="50" height="50" relative="1" as="geometry">
            <mxPoint x="660" y="280" as="sourcePoint" />
            <mxPoint x="660" y="150" as="targetPoint" />
          </mxGeometry>
        </mxCell>
        <mxCell id="j2mQybEEx7JjzLiYnR7x-33" value="" style="endArrow=classic;html=1;rounded=0;entryX=0.5;entryY=0;entryDx=0;entryDy=0;" edge="1" parent="1">
          <mxGeometry width="50" height="50" relative="1" as="geometry">
            <mxPoint x="515" y="165" as="sourcePoint" />
            <mxPoint x="515" y="210" as="targetPoint" />
          </mxGeometry>
        </mxCell>
        <mxCell id="j2mQybEEx7JjzLiYnR7x-39" value="" style="endArrow=classic;html=1;rounded=0;entryX=0;entryY=0.5;entryDx=0;entryDy=0;" edge="1" parent="1" source="j2mQybEEx7JjzLiYnR7x-8">
          <mxGeometry width="50" height="50" relative="1" as="geometry">
            <mxPoint x="535" y="190" as="sourcePoint" />
            <mxPoint x="600" y="165" as="targetPoint" />
          </mxGeometry>
        </mxCell>
        <mxCell id="j2mQybEEx7JjzLiYnR7x-41" value="&#39;cat" style="rounded=0;whiteSpace=wrap;html=1;" vertex="1" parent="1">
          <mxGeometry x="500" y="270" width="30" height="30" as="geometry" />
        </mxCell>
        <mxCell id="j2mQybEEx7JjzLiYnR7x-43" style="edgeStyle=orthogonalEdgeStyle;rounded=0;orthogonalLoop=1;jettySize=auto;html=1;entryX=0.5;entryY=0;entryDx=0;entryDy=0;" edge="1" parent="1" source="-RHoygchYiFBm0QI4CZZ-27" target="j2mQybEEx7JjzLiYnR7x-41">
          <mxGeometry relative="1" as="geometry" />
        </mxCell>
        <mxCell id="j2mQybEEx7JjzLiYnR7x-48" value="" style="rounded=0;whiteSpace=wrap;html=1;" vertex="1" parent="1">
          <mxGeometry x="600" y="210" width="30" height="30" as="geometry" />
        </mxCell>
        <mxCell id="j2mQybEEx7JjzLiYnR7x-49" value="" style="rounded=0;whiteSpace=wrap;html=1;" vertex="1" parent="1">
          <mxGeometry x="630" y="210" width="30" height="30" as="geometry" />
        </mxCell>
        <mxCell id="j2mQybEEx7JjzLiYnR7x-50" value="" style="endArrow=classic;html=1;rounded=0;entryX=0.5;entryY=0;entryDx=0;entryDy=0;" edge="1" parent="1" source="j2mQybEEx7JjzLiYnR7x-52" target="j2mQybEEx7JjzLiYnR7x-53">
          <mxGeometry width="50" height="50" relative="1" as="geometry">
            <mxPoint x="625" y="250" as="sourcePoint" />
            <mxPoint x="645" y="280" as="targetPoint" />
          </mxGeometry>
        </mxCell>
        <mxCell id="j2mQybEEx7JjzLiYnR7x-51" value="" style="shape=waypoint;sketch=0;fillStyle=solid;size=6;pointerEvents=1;points=[];fillColor=none;resizable=0;rotatable=0;perimeter=centerPerimeter;snapToPoint=1;" vertex="1" parent="1">
          <mxGeometry x="605" y="215" width="20" height="20" as="geometry" />
        </mxCell>
        <mxCell id="j2mQybEEx7JjzLiYnR7x-52" value="" style="shape=waypoint;sketch=0;fillStyle=solid;size=6;pointerEvents=1;points=[];fillColor=none;resizable=0;rotatable=0;perimeter=centerPerimeter;snapToPoint=1;" vertex="1" parent="1">
          <mxGeometry x="635" y="215" width="20" height="20" as="geometry" />
        </mxCell>
        <mxCell id="j2mQybEEx7JjzLiYnR7x-53" value="dog likes" style="rounded=0;whiteSpace=wrap;html=1;" vertex="1" parent="1">
          <mxGeometry x="635" y="270" width="30" height="30" as="geometry" />
        </mxCell>
        <mxCell id="j2mQybEEx7JjzLiYnR7x-54" value="&#39;dog" style="rounded=0;whiteSpace=wrap;html=1;" vertex="1" parent="1">
          <mxGeometry x="600" y="270" width="30" height="30" as="geometry" />
        </mxCell>
        <mxCell id="j2mQybEEx7JjzLiYnR7x-55" style="edgeStyle=orthogonalEdgeStyle;rounded=0;orthogonalLoop=1;jettySize=auto;html=1;entryX=0.5;entryY=0;entryDx=0;entryDy=0;" edge="1" parent="1" source="j2mQybEEx7JjzLiYnR7x-51" target="j2mQybEEx7JjzLiYnR7x-54">
          <mxGeometry relative="1" as="geometry" />
        </mxCell>
        <mxCell id="j2mQybEEx7JjzLiYnR7x-56" value="" style="rounded=0;whiteSpace=wrap;html=1;" vertex="1" parent="1">
          <mxGeometry x="297.5" y="320" width="30" height="30" as="geometry" />
        </mxCell>
        <mxCell id="j2mQybEEx7JjzLiYnR7x-57" value="" style="rounded=0;whiteSpace=wrap;html=1;" vertex="1" parent="1">
          <mxGeometry x="327.5" y="320" width="30" height="30" as="geometry" />
        </mxCell>
        <mxCell id="j2mQybEEx7JjzLiYnR7x-58" value="" style="endArrow=classic;html=1;rounded=0;" edge="1" parent="1" source="j2mQybEEx7JjzLiYnR7x-59">
          <mxGeometry width="50" height="50" relative="1" as="geometry">
            <mxPoint x="577.5" y="500" as="sourcePoint" />
            <mxPoint x="312.5" y="390" as="targetPoint" />
          </mxGeometry>
        </mxCell>
        <mxCell id="j2mQybEEx7JjzLiYnR7x-59" value="" style="shape=waypoint;sketch=0;fillStyle=solid;size=6;pointerEvents=1;points=[];fillColor=none;resizable=0;rotatable=0;perimeter=centerPerimeter;snapToPoint=1;" vertex="1" parent="1">
          <mxGeometry x="302.5" y="325" width="20" height="20" as="geometry" />
        </mxCell>
        <mxCell id="j2mQybEEx7JjzLiYnR7x-60" value="" style="shape=waypoint;sketch=0;fillStyle=solid;size=6;pointerEvents=1;points=[];fillColor=none;resizable=0;rotatable=0;perimeter=centerPerimeter;snapToPoint=1;" vertex="1" parent="1">
          <mxGeometry x="332.5" y="325" width="20" height="20" as="geometry" />
        </mxCell>
        <mxCell id="j2mQybEEx7JjzLiYnR7x-61" value="&#39;sound" style="rounded=0;whiteSpace=wrap;html=1;" vertex="1" parent="1">
          <mxGeometry x="297.5" y="390" width="40" height="30" as="geometry" />
        </mxCell>
        <mxCell id="j2mQybEEx7JjzLiYnR7x-62" value="" style="rounded=0;whiteSpace=wrap;html=1;" vertex="1" parent="1">
          <mxGeometry x="397.5" y="380" width="30" height="30" as="geometry" />
        </mxCell>
        <mxCell id="j2mQybEEx7JjzLiYnR7x-63" value="" style="rounded=0;whiteSpace=wrap;html=1;" vertex="1" parent="1">
          <mxGeometry x="427.5" y="380" width="30" height="30" as="geometry" />
        </mxCell>
        <mxCell id="j2mQybEEx7JjzLiYnR7x-64" value="" style="endArrow=classic;html=1;rounded=0;entryX=0.5;entryY=0;entryDx=0;entryDy=0;" edge="1" parent="1" source="j2mQybEEx7JjzLiYnR7x-66" target="j2mQybEEx7JjzLiYnR7x-67">
          <mxGeometry width="50" height="50" relative="1" as="geometry">
            <mxPoint x="422.5" y="420" as="sourcePoint" />
            <mxPoint x="442.5" y="450" as="targetPoint" />
          </mxGeometry>
        </mxCell>
        <mxCell id="j2mQybEEx7JjzLiYnR7x-65" value="" style="shape=waypoint;sketch=0;fillStyle=solid;size=6;pointerEvents=1;points=[];fillColor=none;resizable=0;rotatable=0;perimeter=centerPerimeter;snapToPoint=1;" vertex="1" parent="1">
          <mxGeometry x="402.5" y="385" width="20" height="20" as="geometry" />
        </mxCell>
        <mxCell id="j2mQybEEx7JjzLiYnR7x-66" value="" style="shape=waypoint;sketch=0;fillStyle=solid;size=6;pointerEvents=1;points=[];fillColor=none;resizable=0;rotatable=0;perimeter=centerPerimeter;snapToPoint=1;" vertex="1" parent="1">
          <mxGeometry x="432.5" y="385" width="20" height="20" as="geometry" />
        </mxCell>
        <mxCell id="j2mQybEEx7JjzLiYnR7x-67" value="cat sound" style="rounded=0;whiteSpace=wrap;html=1;" vertex="1" parent="1">
          <mxGeometry x="432.5" y="440" width="42" height="30" as="geometry" />
        </mxCell>
        <mxCell id="j2mQybEEx7JjzLiYnR7x-69" style="edgeStyle=orthogonalEdgeStyle;rounded=0;orthogonalLoop=1;jettySize=auto;html=1;entryX=0;entryY=0.5;entryDx=0;entryDy=0;" edge="1" parent="1" source="j2mQybEEx7JjzLiYnR7x-60" target="j2mQybEEx7JjzLiYnR7x-71">
          <mxGeometry relative="1" as="geometry">
            <mxPoint x="357.5" y="335" as="sourcePoint" />
          </mxGeometry>
        </mxCell>
        <mxCell id="j2mQybEEx7JjzLiYnR7x-70" value="" style="group" vertex="1" connectable="0" parent="1">
          <mxGeometry x="397.5" y="320" width="60" height="30" as="geometry" />
        </mxCell>
        <mxCell id="j2mQybEEx7JjzLiYnR7x-71" value="" style="rounded=0;whiteSpace=wrap;html=1;" vertex="1" parent="j2mQybEEx7JjzLiYnR7x-70">
          <mxGeometry width="30" height="30" as="geometry" />
        </mxCell>
        <mxCell id="j2mQybEEx7JjzLiYnR7x-72" value="" style="rounded=0;whiteSpace=wrap;html=1;" vertex="1" parent="j2mQybEEx7JjzLiYnR7x-70">
          <mxGeometry x="30" width="30" height="30" as="geometry" />
        </mxCell>
        <mxCell id="j2mQybEEx7JjzLiYnR7x-73" value="" style="shape=waypoint;sketch=0;fillStyle=solid;size=6;pointerEvents=1;points=[];fillColor=none;resizable=0;rotatable=0;perimeter=centerPerimeter;snapToPoint=1;" vertex="1" parent="j2mQybEEx7JjzLiYnR7x-70">
          <mxGeometry x="5" y="5" width="20" height="20" as="geometry" />
        </mxCell>
        <mxCell id="j2mQybEEx7JjzLiYnR7x-74" value="" style="shape=waypoint;sketch=0;fillStyle=solid;size=6;pointerEvents=1;points=[];fillColor=none;resizable=0;rotatable=0;perimeter=centerPerimeter;snapToPoint=1;" vertex="1" parent="j2mQybEEx7JjzLiYnR7x-70">
          <mxGeometry x="35" y="5" width="20" height="20" as="geometry" />
        </mxCell>
        <mxCell id="j2mQybEEx7JjzLiYnR7x-75" value="" style="group" vertex="1" connectable="0" parent="1">
          <mxGeometry x="497.5" y="320" width="60" height="30" as="geometry" />
        </mxCell>
        <mxCell id="j2mQybEEx7JjzLiYnR7x-76" value="" style="rounded=0;whiteSpace=wrap;html=1;" vertex="1" parent="j2mQybEEx7JjzLiYnR7x-75">
          <mxGeometry width="30" height="30" as="geometry" />
        </mxCell>
        <mxCell id="j2mQybEEx7JjzLiYnR7x-77" value="" style="rounded=0;whiteSpace=wrap;html=1;" vertex="1" parent="j2mQybEEx7JjzLiYnR7x-75">
          <mxGeometry x="30" width="30" height="30" as="geometry" />
        </mxCell>
        <mxCell id="j2mQybEEx7JjzLiYnR7x-78" value="" style="shape=waypoint;sketch=0;fillStyle=solid;size=6;pointerEvents=1;points=[];fillColor=none;resizable=0;rotatable=0;perimeter=centerPerimeter;snapToPoint=1;" vertex="1" parent="j2mQybEEx7JjzLiYnR7x-75">
          <mxGeometry x="5" y="5" width="20" height="20" as="geometry" />
        </mxCell>
        <mxCell id="j2mQybEEx7JjzLiYnR7x-79" style="edgeStyle=orthogonalEdgeStyle;rounded=0;orthogonalLoop=1;jettySize=auto;html=1;exitX=0.5;exitY=1;exitDx=0;exitDy=0;entryX=0.5;entryY=0;entryDx=0;entryDy=0;" edge="1" parent="1" source="j2mQybEEx7JjzLiYnR7x-76">
          <mxGeometry relative="1" as="geometry">
            <mxPoint x="512.5" y="380" as="targetPoint" />
          </mxGeometry>
        </mxCell>
        <mxCell id="j2mQybEEx7JjzLiYnR7x-80" value="" style="endArrow=none;html=1;rounded=0;exitX=0;exitY=1;exitDx=0;exitDy=0;" edge="1" parent="1" source="j2mQybEEx7JjzLiYnR7x-77">
          <mxGeometry width="50" height="50" relative="1" as="geometry">
            <mxPoint x="557.5" y="450" as="sourcePoint" />
            <mxPoint x="557.5" y="320" as="targetPoint" />
          </mxGeometry>
        </mxCell>
        <mxCell id="j2mQybEEx7JjzLiYnR7x-81" value="" style="endArrow=classic;html=1;rounded=0;entryX=0.5;entryY=0;entryDx=0;entryDy=0;" edge="1" parent="1">
          <mxGeometry width="50" height="50" relative="1" as="geometry">
            <mxPoint x="412.5" y="335" as="sourcePoint" />
            <mxPoint x="412.5" y="380" as="targetPoint" />
          </mxGeometry>
        </mxCell>
        <mxCell id="j2mQybEEx7JjzLiYnR7x-82" value="" style="endArrow=classic;html=1;rounded=0;entryX=0;entryY=0.5;entryDx=0;entryDy=0;" edge="1" parent="1" source="j2mQybEEx7JjzLiYnR7x-74">
          <mxGeometry width="50" height="50" relative="1" as="geometry">
            <mxPoint x="432.5" y="360" as="sourcePoint" />
            <mxPoint x="497.5" y="335" as="targetPoint" />
          </mxGeometry>
        </mxCell>
        <mxCell id="j2mQybEEx7JjzLiYnR7x-83" value="&#39;cat" style="rounded=0;whiteSpace=wrap;html=1;" vertex="1" parent="1">
          <mxGeometry x="397.5" y="440" width="30" height="30" as="geometry" />
        </mxCell>
        <mxCell id="j2mQybEEx7JjzLiYnR7x-84" style="edgeStyle=orthogonalEdgeStyle;rounded=0;orthogonalLoop=1;jettySize=auto;html=1;entryX=0.5;entryY=0;entryDx=0;entryDy=0;" edge="1" parent="1" source="j2mQybEEx7JjzLiYnR7x-65" target="j2mQybEEx7JjzLiYnR7x-83">
          <mxGeometry relative="1" as="geometry" />
        </mxCell>
        <mxCell id="j2mQybEEx7JjzLiYnR7x-85" value="" style="rounded=0;whiteSpace=wrap;html=1;" vertex="1" parent="1">
          <mxGeometry x="497.5" y="380" width="30" height="30" as="geometry" />
        </mxCell>
        <mxCell id="j2mQybEEx7JjzLiYnR7x-86" value="" style="rounded=0;whiteSpace=wrap;html=1;" vertex="1" parent="1">
          <mxGeometry x="527.5" y="380" width="30" height="30" as="geometry" />
        </mxCell>
        <mxCell id="j2mQybEEx7JjzLiYnR7x-87" value="" style="endArrow=classic;html=1;rounded=0;entryX=0.5;entryY=0;entryDx=0;entryDy=0;" edge="1" parent="1" source="j2mQybEEx7JjzLiYnR7x-89" target="j2mQybEEx7JjzLiYnR7x-90">
          <mxGeometry width="50" height="50" relative="1" as="geometry">
            <mxPoint x="522.5" y="420" as="sourcePoint" />
            <mxPoint x="542.5" y="450" as="targetPoint" />
          </mxGeometry>
        </mxCell>
        <mxCell id="j2mQybEEx7JjzLiYnR7x-88" value="" style="shape=waypoint;sketch=0;fillStyle=solid;size=6;pointerEvents=1;points=[];fillColor=none;resizable=0;rotatable=0;perimeter=centerPerimeter;snapToPoint=1;" vertex="1" parent="1">
          <mxGeometry x="502.5" y="385" width="20" height="20" as="geometry" />
        </mxCell>
        <mxCell id="j2mQybEEx7JjzLiYnR7x-89" value="" style="shape=waypoint;sketch=0;fillStyle=solid;size=6;pointerEvents=1;points=[];fillColor=none;resizable=0;rotatable=0;perimeter=centerPerimeter;snapToPoint=1;" vertex="1" parent="1">
          <mxGeometry x="532.5" y="385" width="20" height="20" as="geometry" />
        </mxCell>
        <mxCell id="j2mQybEEx7JjzLiYnR7x-90" value="dog sound" style="rounded=0;whiteSpace=wrap;html=1;" vertex="1" parent="1">
          <mxGeometry x="532.5" y="440" width="42" height="30" as="geometry" />
        </mxCell>
        <mxCell id="j2mQybEEx7JjzLiYnR7x-91" value="&#39;dog" style="rounded=0;whiteSpace=wrap;html=1;" vertex="1" parent="1">
          <mxGeometry x="497.5" y="440" width="30" height="30" as="geometry" />
        </mxCell>
        <mxCell id="j2mQybEEx7JjzLiYnR7x-92" style="edgeStyle=orthogonalEdgeStyle;rounded=0;orthogonalLoop=1;jettySize=auto;html=1;entryX=0.5;entryY=0;entryDx=0;entryDy=0;" edge="1" parent="1" source="j2mQybEEx7JjzLiYnR7x-88" target="j2mQybEEx7JjzLiYnR7x-91">
          <mxGeometry relative="1" as="geometry" />
        </mxCell>
        <mxCell id="j2mQybEEx7JjzLiYnR7x-93" value="" style="rounded=0;whiteSpace=wrap;html=1;" vertex="1" parent="1">
          <mxGeometry x="200" y="90" width="30" height="30" as="geometry" />
        </mxCell>
        <mxCell id="j2mQybEEx7JjzLiYnR7x-94" value="" style="rounded=0;whiteSpace=wrap;html=1;" vertex="1" parent="1">
          <mxGeometry x="230" y="90" width="30" height="30" as="geometry" />
        </mxCell>
        <mxCell id="j2mQybEEx7JjzLiYnR7x-95" value="" style="endArrow=classic;html=1;rounded=0;" edge="1" source="j2mQybEEx7JjzLiYnR7x-96" parent="1">
          <mxGeometry width="50" height="50" relative="1" as="geometry">
            <mxPoint x="480" y="270" as="sourcePoint" />
            <mxPoint x="215" y="160" as="targetPoint" />
          </mxGeometry>
        </mxCell>
        <mxCell id="j2mQybEEx7JjzLiYnR7x-96" value="" style="shape=waypoint;sketch=0;fillStyle=solid;size=6;pointerEvents=1;points=[];fillColor=none;resizable=0;rotatable=0;perimeter=centerPerimeter;snapToPoint=1;" vertex="1" parent="1">
          <mxGeometry x="205" y="95" width="20" height="20" as="geometry" />
        </mxCell>
        <mxCell id="j2mQybEEx7JjzLiYnR7x-97" value="" style="shape=waypoint;sketch=0;fillStyle=solid;size=6;pointerEvents=1;points=[];fillColor=none;resizable=0;rotatable=0;perimeter=centerPerimeter;snapToPoint=1;" vertex="1" parent="1">
          <mxGeometry x="235" y="95" width="20" height="20" as="geometry" />
        </mxCell>
        <mxCell id="j2mQybEEx7JjzLiYnR7x-98" value="*table*" style="rounded=0;whiteSpace=wrap;html=1;" vertex="1" parent="1">
          <mxGeometry x="200" y="160" width="40" height="30" as="geometry" />
        </mxCell>
        <mxCell id="j2mQybEEx7JjzLiYnR7x-99" style="edgeStyle=orthogonalEdgeStyle;rounded=0;orthogonalLoop=1;jettySize=auto;html=1;exitX=1;exitY=0.5;exitDx=0;exitDy=0;entryX=0;entryY=0.5;entryDx=0;entryDy=0;" edge="1" parent="1">
          <mxGeometry relative="1" as="geometry">
            <mxPoint x="160" y="103" as="sourcePoint" />
            <mxPoint x="200" y="103" as="targetPoint" />
          </mxGeometry>
        </mxCell>
        <mxCell id="j2mQybEEx7JjzLiYnR7x-104" value="" style="rounded=0;whiteSpace=wrap;html=1;" vertex="1" parent="1">
          <mxGeometry x="298" y="90" width="30" height="30" as="geometry" />
        </mxCell>
        <mxCell id="j2mQybEEx7JjzLiYnR7x-105" value="" style="rounded=0;whiteSpace=wrap;html=1;" vertex="1" parent="1">
          <mxGeometry x="328" y="90" width="30" height="30" as="geometry" />
        </mxCell>
        <mxCell id="j2mQybEEx7JjzLiYnR7x-106" value="" style="shape=waypoint;sketch=0;fillStyle=solid;size=6;pointerEvents=1;points=[];fillColor=none;resizable=0;rotatable=0;perimeter=centerPerimeter;snapToPoint=1;" vertex="1" parent="1">
          <mxGeometry x="303" y="95" width="20" height="20" as="geometry" />
        </mxCell>
        <mxCell id="j2mQybEEx7JjzLiYnR7x-107" value="" style="shape=waypoint;sketch=0;fillStyle=solid;size=6;pointerEvents=1;points=[];fillColor=none;resizable=0;rotatable=0;perimeter=centerPerimeter;snapToPoint=1;" vertex="1" parent="1">
          <mxGeometry x="333" y="95" width="20" height="20" as="geometry" />
        </mxCell>
        <mxCell id="j2mQybEEx7JjzLiYnR7x-113" value="" style="group" vertex="1" connectable="0" parent="1">
          <mxGeometry x="400" y="90" width="60" height="30" as="geometry" />
        </mxCell>
        <mxCell id="j2mQybEEx7JjzLiYnR7x-114" value="" style="rounded=0;whiteSpace=wrap;html=1;" vertex="1" parent="j2mQybEEx7JjzLiYnR7x-113">
          <mxGeometry width="30" height="30" as="geometry" />
        </mxCell>
        <mxCell id="j2mQybEEx7JjzLiYnR7x-115" value="" style="rounded=0;whiteSpace=wrap;html=1;" vertex="1" parent="j2mQybEEx7JjzLiYnR7x-113">
          <mxGeometry x="30" width="30" height="30" as="geometry" />
        </mxCell>
        <mxCell id="j2mQybEEx7JjzLiYnR7x-116" value="" style="shape=waypoint;sketch=0;fillStyle=solid;size=6;pointerEvents=1;points=[];fillColor=none;resizable=0;rotatable=0;perimeter=centerPerimeter;snapToPoint=1;" vertex="1" parent="j2mQybEEx7JjzLiYnR7x-113">
          <mxGeometry x="5" y="5" width="20" height="20" as="geometry" />
        </mxCell>
        <mxCell id="j2mQybEEx7JjzLiYnR7x-117" value="" style="endArrow=none;html=1;rounded=0;exitX=0;exitY=1;exitDx=0;exitDy=0;" edge="1" source="j2mQybEEx7JjzLiYnR7x-115" parent="1">
          <mxGeometry width="50" height="50" relative="1" as="geometry">
            <mxPoint x="460" y="220" as="sourcePoint" />
            <mxPoint x="460" y="90" as="targetPoint" />
          </mxGeometry>
        </mxCell>
        <mxCell id="j2mQybEEx7JjzLiYnR7x-118" style="edgeStyle=orthogonalEdgeStyle;rounded=0;orthogonalLoop=1;jettySize=auto;html=1;entryX=0;entryY=0.5;entryDx=0;entryDy=0;" edge="1" parent="1" source="j2mQybEEx7JjzLiYnR7x-107" target="j2mQybEEx7JjzLiYnR7x-114">
          <mxGeometry relative="1" as="geometry" />
        </mxCell>
        <mxCell id="j2mQybEEx7JjzLiYnR7x-119" style="edgeStyle=orthogonalEdgeStyle;rounded=0;orthogonalLoop=1;jettySize=auto;html=1;entryX=0.5;entryY=0;entryDx=0;entryDy=0;" edge="1" parent="1" source="j2mQybEEx7JjzLiYnR7x-116" target="-RHoygchYiFBm0QI4CZZ-1">
          <mxGeometry relative="1" as="geometry" />
        </mxCell>
        <mxCell id="j2mQybEEx7JjzLiYnR7x-121" style="edgeStyle=orthogonalEdgeStyle;rounded=0;orthogonalLoop=1;jettySize=auto;html=1;entryX=0.5;entryY=0;entryDx=0;entryDy=0;" edge="1" parent="1" source="j2mQybEEx7JjzLiYnR7x-106" target="j2mQybEEx7JjzLiYnR7x-56">
          <mxGeometry relative="1" as="geometry" />
        </mxCell>
        <mxCell id="j2mQybEEx7JjzLiYnR7x-122" style="edgeStyle=orthogonalEdgeStyle;rounded=0;orthogonalLoop=1;jettySize=auto;html=1;entryX=0;entryY=0.5;entryDx=0;entryDy=0;" edge="1" parent="1" source="j2mQybEEx7JjzLiYnR7x-97" target="j2mQybEEx7JjzLiYnR7x-104">
          <mxGeometry relative="1" as="geometry" />
        </mxCell>
      </root>
    </mxGraphModel>
  </diagram>
</mxfile>
